# xmcd
#
# Track frame offsets:
#	182
#	14310
#	34672
#	50870
#	66772
#	77797
#	99737
#	116612
#	127952
#	149452
#	174115
#	190320
#	207372
#	218235
#
# Disc length: 3148 seconds
#
# Revision: 0
# Processed by: cddbd v1.5.1PL0 Copyright (c) Steve Scherf et al.
# Submitted via: dBpowerAMP V4.0
#
DISCID=ca0c4a0e
DTITLE=? - NEW ORLEANS
DYEAR=1900
DGENRE=Jazz
TTITLE0=Ballin' the Jack
TTITLE1=Ice cream
TTITLE2=Aunthaggard's blues
TTITLE3=Tiger rag
TTITLE4=Texas moaner
TTITLE5=Darton stomp
TTITLE6=Georgia grind
TTITLE7=Bix's tune
TTITLE8=Lonesome road
TTITLE9=Little Brown jug
TTITLE10=The axe
TTITLE11=Green man rag
TTITLE12=Down by the riverside
TTITLE13=Mahogany hall stomp
EXTD=
EXTT0=
EXTT1=
EXTT2=
EXTT3=
EXTT4=
EXTT5=
EXTT6=
EXTT7=
EXTT8=
EXTT9=
EXTT10=
EXTT11=
EXTT12=
EXTT13=
PLAYORDER=
